<mxfile host="app.diagrams.net" modified="2021-06-17T08:26:11.714Z" agent="5.0 (Windows NT 10.0; Win64; x64) AppleWebKit/537.36 (KHTML, like Gecko) Chrome/91.0.4472.101 Safari/537.36" etag="JLfnPa5z9pmXUAWS1uU6" version="14.7.10" type="github">
  <diagram id="_dmhlKY-OVH1K_Ed6C6u" name="第 1 页">
    <mxGraphModel dx="1038" dy="547" grid="1" gridSize="10" guides="1" tooltips="1" connect="1" arrows="1" fold="1" page="1" pageScale="1" pageWidth="827" pageHeight="1169" math="0" shadow="0">
      <root>
        <mxCell id="0" />
        <mxCell id="1" parent="0" />
        <mxCell id="-kuX9BFchEWkm1FDKS3O-17" value="" style="group" parent="1" vertex="1" connectable="0">
          <mxGeometry x="229.95000000000002" y="46.49" width="106.70000000000002" height="123.50999999999999" as="geometry" />
        </mxCell>
        <mxCell id="-kuX9BFchEWkm1FDKS3O-6" value="" style="verticalLabelPosition=bottom;aspect=fixed;html=1;verticalAlign=top;strokeColor=#82b366;align=center;outlineConnect=0;shape=mxgraph.citrix.access_card;shadow=1;sketch=1;fillColor=#d5e8d4;" parent="-kuX9BFchEWkm1FDKS3O-17" vertex="1">
          <mxGeometry x="20.049999999999983" width="66.6" height="90" as="geometry" />
        </mxCell>
        <mxCell id="-kuX9BFchEWkm1FDKS3O-14" value="&lt;b&gt;&lt;font style=&quot;font-size: 16px ; background-color: rgb(230 , 255 , 204)&quot;&gt;URL 访问权限&lt;/font&gt;&lt;/b&gt;" style="text;html=1;strokeColor=none;fillColor=none;align=center;verticalAlign=middle;whiteSpace=wrap;rounded=0;shadow=1;sketch=1;" parent="-kuX9BFchEWkm1FDKS3O-17" vertex="1">
          <mxGeometry y="103.50999999999999" width="106.7" height="20" as="geometry" />
        </mxCell>
        <mxCell id="-kuX9BFchEWkm1FDKS3O-18" value="" style="group" parent="1" vertex="1" connectable="0">
          <mxGeometry x="479.95000000000005" y="46.49" width="106.70000000000005" height="123.50999999999999" as="geometry" />
        </mxCell>
        <mxCell id="-kuX9BFchEWkm1FDKS3O-7" value="" style="verticalLabelPosition=bottom;aspect=fixed;html=1;verticalAlign=top;strokeColor=#b85450;align=center;outlineConnect=0;shape=mxgraph.citrix.access_card;shadow=1;sketch=1;fillColor=#f8cecc;" parent="-kuX9BFchEWkm1FDKS3O-18" vertex="1">
          <mxGeometry x="20.049999999999955" width="66.6" height="90" as="geometry" />
        </mxCell>
        <mxCell id="-kuX9BFchEWkm1FDKS3O-15" value="&lt;b&gt;&lt;font style=&quot;font-size: 16px ; background-color: rgb(255 , 204 , 204)&quot;&gt;对象资源权限&lt;/font&gt;&lt;/b&gt;" style="text;html=1;strokeColor=none;fillColor=none;align=center;verticalAlign=middle;whiteSpace=wrap;rounded=0;shadow=1;sketch=1;" parent="-kuX9BFchEWkm1FDKS3O-18" vertex="1">
          <mxGeometry y="103.50999999999999" width="106.7" height="20" as="geometry" />
        </mxCell>
        <mxCell id="-kuX9BFchEWkm1FDKS3O-19" value="" style="group" parent="1" vertex="1" connectable="0">
          <mxGeometry x="100" y="290" width="120" height="120" as="geometry" />
        </mxCell>
        <mxCell id="-kuX9BFchEWkm1FDKS3O-9" value="" style="pointerEvents=1;shadow=1;html=1;labelPosition=center;verticalLabelPosition=bottom;verticalAlign=top;align=center;fillColor=#505050;shape=mxgraph.mscae.intune.user_group;sketch=1;strokeWidth=1;" parent="-kuX9BFchEWkm1FDKS3O-19" vertex="1">
          <mxGeometry width="120" height="80" as="geometry" />
        </mxCell>
        <mxCell id="-kuX9BFchEWkm1FDKS3O-16" value="&lt;b&gt;&lt;font style=&quot;font-size: 16px&quot;&gt;用户组&lt;/font&gt;&lt;/b&gt;" style="text;html=1;strokeColor=none;fillColor=none;align=center;verticalAlign=middle;whiteSpace=wrap;rounded=0;shadow=1;sketch=1;" parent="-kuX9BFchEWkm1FDKS3O-19" vertex="1">
          <mxGeometry x="30" y="100" width="60" height="20" as="geometry" />
        </mxCell>
        <mxCell id="-kuX9BFchEWkm1FDKS3O-24" value="" style="group" parent="1" vertex="1" connectable="0">
          <mxGeometry x="590" y="290" width="94.5" height="120" as="geometry" />
        </mxCell>
        <mxCell id="-kuX9BFchEWkm1FDKS3O-10" value="" style="outlineConnect=0;dashed=0;verticalLabelPosition=bottom;verticalAlign=top;align=center;html=1;shape=mxgraph.aws3.role;fillColor=#759C3E;gradientColor=none;shadow=1;sketch=1;strokeColor=#000000;strokeWidth=2;" parent="-kuX9BFchEWkm1FDKS3O-24" vertex="1">
          <mxGeometry width="94.5" height="79.5" as="geometry" />
        </mxCell>
        <mxCell id="-kuX9BFchEWkm1FDKS3O-20" value="&lt;b&gt;&lt;font style=&quot;font-size: 16px&quot;&gt;角色&lt;/font&gt;&lt;/b&gt;" style="text;html=1;strokeColor=none;fillColor=none;align=center;verticalAlign=middle;whiteSpace=wrap;rounded=0;shadow=1;sketch=1;" parent="-kuX9BFchEWkm1FDKS3O-24" vertex="1">
          <mxGeometry x="27.25" y="100" width="40" height="20" as="geometry" />
        </mxCell>
        <mxCell id="-kuX9BFchEWkm1FDKS3O-26" value="" style="group" parent="1" vertex="1" connectable="0">
          <mxGeometry x="375" y="540" width="78" height="110" as="geometry" />
        </mxCell>
        <mxCell id="-kuX9BFchEWkm1FDKS3O-13" value="" style="outlineConnect=0;fontColor=#232F3E;gradientColor=none;dashed=0;verticalLabelPosition=bottom;verticalAlign=top;align=center;html=1;fontSize=12;fontStyle=0;aspect=fixed;pointerEvents=1;shape=mxgraph.aws4.user;shadow=1;sketch=1;fillColor=#FFFF00;" parent="-kuX9BFchEWkm1FDKS3O-26" vertex="1">
          <mxGeometry width="78" height="78" as="geometry" />
        </mxCell>
        <mxCell id="-kuX9BFchEWkm1FDKS3O-25" value="&lt;b&gt;&lt;font style=&quot;font-size: 16px&quot;&gt;用户&lt;/font&gt;&lt;/b&gt;" style="text;html=1;strokeColor=none;fillColor=none;align=center;verticalAlign=middle;whiteSpace=wrap;rounded=0;shadow=1;sketch=1;" parent="-kuX9BFchEWkm1FDKS3O-26" vertex="1">
          <mxGeometry x="19" y="90" width="40" height="20" as="geometry" />
        </mxCell>
        <mxCell id="-kuX9BFchEWkm1FDKS3O-29" value="" style="endArrow=classic;html=1;entryX=0.5;entryY=0;entryDx=0;entryDy=0;entryPerimeter=0;strokeWidth=4;shadow=0;sketch=1;exitX=0.25;exitY=1;exitDx=0;exitDy=0;strokeColor=#97D077;" parent="1" source="-kuX9BFchEWkm1FDKS3O-14" target="-kuX9BFchEWkm1FDKS3O-9" edge="1">
          <mxGeometry width="50" height="50" relative="1" as="geometry">
            <mxPoint x="290" y="190" as="sourcePoint" />
            <mxPoint x="440" y="230" as="targetPoint" />
          </mxGeometry>
        </mxCell>
        <mxCell id="-kuX9BFchEWkm1FDKS3O-30" value="" style="endArrow=classic;html=1;shadow=0;strokeWidth=4;sketch=1;exitX=0.25;exitY=1;exitDx=0;exitDy=0;entryX=0;entryY=0.641;entryDx=0;entryDy=0;entryPerimeter=0;strokeColor=#006600;" parent="1" source="-kuX9BFchEWkm1FDKS3O-16" target="-kuX9BFchEWkm1FDKS3O-13" edge="1">
          <mxGeometry width="50" height="50" relative="1" as="geometry">
            <mxPoint x="310" y="450" as="sourcePoint" />
            <mxPoint x="360" y="400" as="targetPoint" />
          </mxGeometry>
        </mxCell>
        <mxCell id="-kuX9BFchEWkm1FDKS3O-31" value="" style="endArrow=classic;html=1;shadow=0;strokeColor=#97D077;strokeWidth=4;sketch=1;exitX=0.75;exitY=1;exitDx=0;exitDy=0;" parent="1" source="-kuX9BFchEWkm1FDKS3O-14" target="-kuX9BFchEWkm1FDKS3O-10" edge="1">
          <mxGeometry width="50" height="50" relative="1" as="geometry">
            <mxPoint x="310" y="310" as="sourcePoint" />
            <mxPoint x="360" y="260" as="targetPoint" />
          </mxGeometry>
        </mxCell>
        <mxCell id="-kuX9BFchEWkm1FDKS3O-32" value="" style="endArrow=classic;html=1;shadow=0;strokeColor=#97D077;strokeWidth=4;exitX=0.5;exitY=1;exitDx=0;exitDy=0;" parent="1" source="-kuX9BFchEWkm1FDKS3O-14" target="-kuX9BFchEWkm1FDKS3O-13" edge="1">
          <mxGeometry width="50" height="50" relative="1" as="geometry">
            <mxPoint x="310" y="310" as="sourcePoint" />
            <mxPoint x="360" y="260" as="targetPoint" />
          </mxGeometry>
        </mxCell>
        <mxCell id="-kuX9BFchEWkm1FDKS3O-33" value="" style="endArrow=classic;html=1;shadow=0;strokeWidth=4;sketch=1;exitX=0.75;exitY=1;exitDx=0;exitDy=0;strokeColor=#006600;" parent="1" source="-kuX9BFchEWkm1FDKS3O-20" edge="1">
          <mxGeometry width="50" height="50" relative="1" as="geometry">
            <mxPoint x="310" y="380" as="sourcePoint" />
            <mxPoint x="460" y="590" as="targetPoint" />
          </mxGeometry>
        </mxCell>
        <mxCell id="-kuX9BFchEWkm1FDKS3O-34" value="" style="endArrow=classic;html=1;shadow=0;strokeWidth=4;strokeColor=#FFCCCC;exitX=0.25;exitY=1;exitDx=0;exitDy=0;entryX=1.014;entryY=0.16;entryDx=0;entryDy=0;entryPerimeter=0;" parent="1" source="-kuX9BFchEWkm1FDKS3O-15" target="-kuX9BFchEWkm1FDKS3O-9" edge="1">
          <mxGeometry width="50" height="50" relative="1" as="geometry">
            <mxPoint x="310" y="310" as="sourcePoint" />
            <mxPoint x="360" y="260" as="targetPoint" />
          </mxGeometry>
        </mxCell>
        <mxCell id="-kuX9BFchEWkm1FDKS3O-35" value="" style="endArrow=classic;html=1;shadow=0;strokeColor=#FFCCCC;strokeWidth=4;sketch=1;exitX=0.5;exitY=1;exitDx=0;exitDy=0;" parent="1" source="-kuX9BFchEWkm1FDKS3O-15" target="-kuX9BFchEWkm1FDKS3O-13" edge="1">
          <mxGeometry width="50" height="50" relative="1" as="geometry">
            <mxPoint x="310" y="310" as="sourcePoint" />
            <mxPoint x="360" y="260" as="targetPoint" />
          </mxGeometry>
        </mxCell>
        <mxCell id="-kuX9BFchEWkm1FDKS3O-36" value="" style="endArrow=classic;html=1;shadow=0;strokeColor=#FFCCCC;strokeWidth=4;exitX=0.75;exitY=1;exitDx=0;exitDy=0;entryX=0.54;entryY=0;entryDx=0;entryDy=0;entryPerimeter=0;" parent="1" source="-kuX9BFchEWkm1FDKS3O-15" target="-kuX9BFchEWkm1FDKS3O-10" edge="1">
          <mxGeometry width="50" height="50" relative="1" as="geometry">
            <mxPoint x="310" y="390" as="sourcePoint" />
            <mxPoint x="360" y="340" as="targetPoint" />
          </mxGeometry>
        </mxCell>
        <mxCell id="-kuX9BFchEWkm1FDKS3O-37" value="" style="endArrow=classic;html=1;shadow=0;strokeWidth=4;exitX=0.75;exitY=1;exitDx=0;exitDy=0;strokeColor=#CC0000;" parent="1" source="-kuX9BFchEWkm1FDKS3O-16" target="-kuX9BFchEWkm1FDKS3O-13" edge="1">
          <mxGeometry width="50" height="50" relative="1" as="geometry">
            <mxPoint x="310" y="390" as="sourcePoint" />
            <mxPoint x="360" y="340" as="targetPoint" />
          </mxGeometry>
        </mxCell>
        <mxCell id="-kuX9BFchEWkm1FDKS3O-38" value="" style="endArrow=classic;html=1;shadow=0;strokeWidth=4;exitX=0.25;exitY=1;exitDx=0;exitDy=0;strokeColor=#CC0000;" parent="1" source="-kuX9BFchEWkm1FDKS3O-20" target="-kuX9BFchEWkm1FDKS3O-13" edge="1">
          <mxGeometry width="50" height="50" relative="1" as="geometry">
            <mxPoint x="310" y="390" as="sourcePoint" />
            <mxPoint x="360" y="340" as="targetPoint" />
          </mxGeometry>
        </mxCell>
        <mxCell id="iSqPNYEQsiQ3UsT9nRAE-1" value="" style="endArrow=classic;html=1;entryX=0.997;entryY=0.572;entryDx=0;entryDy=0;entryPerimeter=0;strokeWidth=4;shadow=0;sketch=1;strokeColor=#B5739D;" edge="1" parent="1" source="-kuX9BFchEWkm1FDKS3O-10" target="-kuX9BFchEWkm1FDKS3O-9">
          <mxGeometry width="50" height="50" relative="1" as="geometry">
            <mxPoint x="266.625" y="180" as="sourcePoint" />
            <mxPoint x="170" y="300" as="targetPoint" />
          </mxGeometry>
        </mxCell>
        <mxCell id="-kuX9BFchEWkm1FDKS3O-42" value="" style="group" parent="1" vertex="1" connectable="0">
          <mxGeometry x="372" y="280" width="84" height="112" as="geometry" />
        </mxCell>
        <mxCell id="-kuX9BFchEWkm1FDKS3O-39" value="" style="aspect=fixed;html=1;points=[];align=center;image;fontSize=12;image=img/lib/azure2/security/Conditional_Access.svg;shadow=1;sketch=1;strokeColor=#000000;strokeWidth=2;fillColor=#FFFF00;gradientColor=none;" parent="-kuX9BFchEWkm1FDKS3O-42" vertex="1">
          <mxGeometry x="14" width="56.00000000000001" height="68" as="geometry" />
        </mxCell>
        <mxCell id="-kuX9BFchEWkm1FDKS3O-41" value="&lt;b&gt;Permission Assignment&lt;/b&gt;" style="text;html=1;strokeColor=none;fillColor=none;align=center;verticalAlign=middle;whiteSpace=wrap;rounded=0;shadow=1;sketch=1;" parent="-kuX9BFchEWkm1FDKS3O-42" vertex="1">
          <mxGeometry y="70" width="84" height="42" as="geometry" />
        </mxCell>
      </root>
    </mxGraphModel>
  </diagram>
</mxfile>
